/vscmnt/brussel_pixiu_data/_data_brussel/112/vsc11236/PredSimResults/SUBJ04opt3D/worker_14.mot
version=1
nRows=4
nColumns=50
inDegrees=yes
endheader
                time	         pelvis_tilt	         pelvis_list	     pelvis_rotation	           pelvis_tx	           pelvis_ty	           pelvis_tz	       hip_flexion_r	     hip_adduction_r	      hip_rotation_r	        knee_angle_r	       ankle_angle_r	         mtp_angle_r	       hip_flexion_l	     hip_adduction_l	      hip_rotation_l	        knee_angle_l	       ankle_angle_l	         mtp_angle_l	    lumbar_extension	      lumbar_bending	     lumbar_rotation	 ercspn_r/activation	 intobl_r/activation	 extobl_r/activation	    abd_r/activation	    add_r/activation	hamstrings_r/activation	bifemsh_r/activation	glut_max_r/activation	iliopsoas_r/activation	rect_fem_r/activation	  vasti_r/activation	gastroc_r/activation	 soleus_r/activation	tib_ant_r/activation	 ercspn_l/activation	 intobl_l/activation	 extobl_l/activation	    abd_l/activation	    add_l/activation	hamstrings_l/activation	bifemsh_l/activation	glut_max_l/activation	iliopsoas_l/activation	rect_fem_l/activation	  vasti_l/activation	gastroc_l/activation	 soleus_l/activation	tib_ant_l/activation	
          0.00000000	        -18.29532199	         -5.35184255	          7.76138831	          0.00000000	          0.85395634	         -0.01547638	         43.68710328	         -0.94336787	          2.77149823	         -8.07523719	          0.36279973	          0.24152460	          4.21553325	         -2.50221015	          8.72438025	        -19.78523654	          6.09815660	         40.22409748	         -1.40821111	          2.13324299	         -0.67127959	          0.28342658	          0.04515728	          0.00999999	          0.04083735	          0.26311574	          0.08925839	          0.33415024	          0.00999999	          0.12260232	          0.05017414	          0.01609862	          0.12057581	          0.00999999	          0.37488972	          0.19957288	          0.23695924	          0.00999999	          0.09982933	          0.04213988	          0.13278723	          0.54971161	          0.09242527	          0.46931114	          0.01845903	          0.00999999	          0.30632536	          0.33290320	          0.02898130	
          0.02000000	        -17.77248253	         -4.96195414	          8.35639070	          0.04754423	          0.85248896	         -0.01370631	         43.46560477	         -0.44690898	          3.24419105	        -14.34131869	          0.79686823	          0.17899514	          3.54179682	         -2.35217436	          7.46507637	        -24.49248843	          2.07727232	         43.38712502	         -0.75008209	          1.75983156	         -0.67775795	          0.21256993	          0.03386796	          0.00999999	          0.12045921	          0.38293972	          0.09978293	          0.25061268	          0.22408861	          0.09195174	          0.03763060	          0.01207396	          0.09043186	          0.00999999	          0.41773449	          0.22552747	          0.29075991	          0.00999999	          0.07487199	          0.03160491	          0.09959043	          0.41228371	          0.06931896	          0.74419562	          0.01384427	          0.00999999	          0.22974402	          0.24967740	          0.02173597	
          0.04000000	        -17.14994828	         -4.69216766	          8.92819426	          0.09483221	          0.85109460	         -0.01135878	         42.91425903	          0.22011891	          4.00848841	        -20.44075184	          1.59569180	          0.14509183	          4.81593622	         -2.36357005	          5.96390262	        -32.52111768	         -2.33282474	         43.40821477	         -0.20858848	          1.37883970	         -0.42284254	          0.18532725	          0.02540097	          0.00999999	          0.27313601	          0.49425039	          0.07483720	          0.18795951	          0.60796474	          0.06896381	          0.02822295	          0.00999999	          0.06782390	          0.00999999	          0.31330087	          0.32406086	          0.21806993	          0.00999999	          0.05615399	          0.02370368	          0.07469282	          0.30921278	          0.05198922	          0.81137060	          0.01038320	          0.00999999	          0.17230801	          0.18725805	          0.01630198	
          0.06000000	        -16.43987810	         -4.43330226	          9.44326480	          0.14077642	          0.85091445	         -0.00856653	         42.28734292	          0.89460903	          4.31355296	        -26.87465249	          5.32891039	          1.55338722	          7.90394024	         -2.74808130	          3.54601883	        -42.57060238	         -9.02685047	         40.19954508	          0.09080460	          0.89731040	          0.03351384	          0.13899544	          0.01905073	          0.00999999	          0.47540847	          0.37068779	          0.09181958	          0.14096963	          0.45698124	          0.05172285	          0.02116721	          0.27185785	          0.14641088	          0.24436325	          0.23497565	          0.32480857	          0.16355245	          0.00999999	          0.04211550	          0.01777776	          0.05601961	          0.23190959	          0.03899191	          0.60852795	          0.25416347	          0.00999999	          0.12923101	          0.14044354	          0.01222648	
